<?xml version="1.0" encoding="UTF-8" standalone="no"?>
<!DOCTYPE svg PUBLIC "-//W3C//DTD SVG 1.1//EN"
 "http://www.w3.org/Graphics/SVG/1.1/DTD/svg11.dtd">
<!-- Generated by graphviz version 2.40.1 (20161225.0304)
 -->
<!-- Title: dependencies Pages: 1 -->
<svg width="1339pt" height="284pt"
 viewBox="0.00 0.00 1339.00 284.00" xmlns="http://www.w3.org/2000/svg" xmlns:xlink="http://www.w3.org/1999/xlink">
<g id="graph0" class="graph" transform="scale(1 1) rotate(0) translate(4 280)">
<title>dependencies</title>
<polygon fill="#ffffff" stroke="transparent" points="-4,4 -4,-280 1335,-280 1335,4 -4,4"/>
<text text-anchor="start" x="644.5091" y="-42.4" font-family="sans-serif" font-weight="bold" font-size="14.00" fill="#000000">Legend</text>
<polygon fill="#ffffb3" stroke="transparent" points="431.5,-10 431.5,-30 451.5,-30 451.5,-10 431.5,-10"/>
<text text-anchor="start" x="455.129" y="-15.4" font-family="sans-serif" font-size="14.00" fill="#000000"> &#160;Declarations</text>
<polygon fill="#8dd3c7" stroke="transparent" points="544.5,-10 544.5,-30 564.5,-30 564.5,-10 544.5,-10"/>
<text text-anchor="start" x="568.2251" y="-15.4" font-family="sans-serif" font-size="14.00" fill="#000000"> &#160;Module</text>
<polygon fill="#80b1d3" stroke="transparent" points="630.5,-10 630.5,-30 650.5,-30 650.5,-10 630.5,-10"/>
<text text-anchor="start" x="654.2812" y="-15.4" font-family="sans-serif" font-size="14.00" fill="#000000"> &#160;Bootstrap</text>
<polygon fill="#fdb462" stroke="transparent" points="727.5,-10 727.5,-30 747.5,-30 747.5,-10 727.5,-10"/>
<text text-anchor="start" x="751.1732" y="-15.4" font-family="sans-serif" font-size="14.00" fill="#000000"> &#160;Providers</text>
<polygon fill="#fb8072" stroke="transparent" points="823.5,-10 823.5,-30 843.5,-30 843.5,-10 823.5,-10"/>
<text text-anchor="start" x="847.2258" y="-15.4" font-family="sans-serif" font-size="14.00" fill="#000000"> &#160;Exports</text>
<g id="clust1" class="cluster">
<title>cluster_AppModule</title>
<polygon fill="none" stroke="#000000" stroke-dasharray="1,5" points="8,-70 8,-268 1323,-268 1323,-70 8,-70"/>
</g>
<g id="clust2" class="cluster">
<title>cluster_AppModule_declarations</title>
<polygon fill="none" stroke="#000000" points="168,-78 168,-130 1315,-130 1315,-78 168,-78"/>
</g>
<g id="clust9" class="cluster">
<title>cluster_AppModule_imports</title>
<polygon fill="none" stroke="#000000" points="16,-78 16,-130 160,-130 160,-78 16,-78"/>
</g>
<g id="clust11" class="cluster">
<title>cluster_AppModule_bootstrap</title>
<polygon fill="none" stroke="#000000" points="612,-208 612,-260 736,-260 736,-208 612,-208"/>
</g>
<!-- AirQualityComponentComponent -->
<g id="node1" class="node">
<title>AirQualityComponentComponent</title>
<polygon fill="#ffffb3" stroke="#000000" points="1306.8158,-122 1099.1842,-122 1099.1842,-86 1306.8158,-86 1306.8158,-122"/>
<text text-anchor="middle" x="1203" y="-99.8" font-family="Times,serif" font-size="14.00" fill="#000000">AirQualityComponentComponent</text>
</g>
<!-- AppModule -->
<g id="node7" class="node">
<title>AppModule</title>
<polygon fill="#8dd3c7" stroke="#000000" points="715.6571,-187 712.6571,-191 691.6571,-191 688.6571,-187 632.3429,-187 632.3429,-151 715.6571,-151 715.6571,-187"/>
<text text-anchor="middle" x="674" y="-164.8" font-family="Times,serif" font-size="14.00" fill="#000000">AppModule</text>
</g>
<!-- AirQualityComponentComponent&#45;&gt;AppModule -->
<g id="edge1" class="edge">
<title>AirQualityComponentComponent&#45;&gt;AppModule</title>
<path fill="none" stroke="#000000" d="M1203,-122.2921C1203,-144.2057 1203,-178 1203,-178 1203,-178 725.9519,-178 725.9519,-178"/>
<polygon fill="#000000" stroke="#000000" points="725.9519,-174.5001 715.9519,-178 725.9519,-181.5001 725.9519,-174.5001"/>
</g>
<!-- AppComponent -->
<g id="node2" class="node">
<title>AppComponent</title>
<polygon fill="#ffffb3" stroke="#000000" points="1081.9399,-122 976.0601,-122 976.0601,-86 1081.9399,-86 1081.9399,-122"/>
<text text-anchor="middle" x="1029" y="-99.8" font-family="Times,serif" font-size="14.00" fill="#000000">AppComponent</text>
</g>
<!-- AppComponent&#45;&gt;AppModule -->
<g id="edge2" class="edge">
<title>AppComponent&#45;&gt;AppModule</title>
<path fill="none" stroke="#000000" d="M1029,-122.1061C1029,-141.3391 1029,-169 1029,-169 1029,-169 725.7669,-169 725.7669,-169"/>
<polygon fill="#000000" stroke="#000000" points="725.767,-165.5001 715.7669,-169 725.7669,-172.5001 725.767,-165.5001"/>
</g>
<!-- MapComponentComponent -->
<g id="node3" class="node">
<title>MapComponentComponent</title>
<polygon fill="#ffffb3" stroke="#000000" points="958.3243,-122 785.6757,-122 785.6757,-86 958.3243,-86 958.3243,-122"/>
<text text-anchor="middle" x="872" y="-99.8" font-family="Times,serif" font-size="14.00" fill="#000000">MapComponentComponent</text>
</g>
<!-- MapComponentComponent&#45;&gt;AppModule -->
<g id="edge3" class="edge">
<title>MapComponentComponent&#45;&gt;AppModule</title>
<path fill="none" stroke="#000000" d="M872,-122.027C872,-138.3976 872,-160 872,-160 872,-160 725.9907,-160 725.9907,-160"/>
<polygon fill="#000000" stroke="#000000" points="725.9907,-156.5001 715.9907,-160 725.9907,-163.5001 725.9907,-156.5001"/>
</g>
<!-- QualityComponentComponent -->
<g id="node4" class="node">
<title>QualityComponentComponent</title>
<polygon fill="#ffffb3" stroke="#000000" points="768.1581,-122 579.8419,-122 579.8419,-86 768.1581,-86 768.1581,-122"/>
<text text-anchor="middle" x="674" y="-99.8" font-family="Times,serif" font-size="14.00" fill="#000000">QualityComponentComponent</text>
</g>
<!-- QualityComponentComponent&#45;&gt;AppModule -->
<g id="edge4" class="edge">
<title>QualityComponentComponent&#45;&gt;AppModule</title>
<path fill="none" stroke="#000000" d="M674,-122.1061C674,-122.1061 674,-140.991 674,-140.991"/>
<polygon fill="#000000" stroke="#000000" points="670.5001,-140.9909 674,-150.991 677.5001,-140.991 670.5001,-140.9909"/>
</g>
<!-- StatsComponentComponent -->
<g id="node5" class="node">
<title>StatsComponentComponent</title>
<polygon fill="#ffffb3" stroke="#000000" points="561.8878,-122 388.1122,-122 388.1122,-86 561.8878,-86 561.8878,-122"/>
<text text-anchor="middle" x="475" y="-99.8" font-family="Times,serif" font-size="14.00" fill="#000000">StatsComponentComponent</text>
</g>
<!-- StatsComponentComponent&#45;&gt;AppModule -->
<g id="edge5" class="edge">
<title>StatsComponentComponent&#45;&gt;AppModule</title>
<path fill="none" stroke="#000000" d="M475,-122.027C475,-138.3976 475,-160 475,-160 475,-160 622.2831,-160 622.2831,-160"/>
<polygon fill="#000000" stroke="#000000" points="622.2831,-163.5001 632.2831,-160 622.283,-156.5001 622.2831,-163.5001"/>
</g>
<!-- WeatherComponentComponent -->
<g id="node6" class="node">
<title>WeatherComponentComponent</title>
<polygon fill="#ffffb3" stroke="#000000" points="370.0744,-122 175.9256,-122 175.9256,-86 370.0744,-86 370.0744,-122"/>
<text text-anchor="middle" x="273" y="-99.8" font-family="Times,serif" font-size="14.00" fill="#000000">WeatherComponentComponent</text>
</g>
<!-- WeatherComponentComponent&#45;&gt;AppModule -->
<g id="edge6" class="edge">
<title>WeatherComponentComponent&#45;&gt;AppModule</title>
<path fill="none" stroke="#000000" d="M273,-122.1061C273,-141.3391 273,-169 273,-169 273,-169 622.2208,-169 622.2208,-169"/>
<polygon fill="#000000" stroke="#000000" points="622.2208,-172.5001 632.2208,-169 622.2207,-165.5001 622.2208,-172.5001"/>
</g>
<!-- AppComponent  -->
<g id="node9" class="node">
<title>AppComponent </title>
<polygon fill="#80b1d3" stroke="#000000" points="728.439,-252 619.561,-252 619.561,-216 728.439,-216 728.439,-252"/>
<text text-anchor="middle" x="674" y="-229.8" font-family="Times,serif" font-size="14.00" fill="#000000">AppComponent </text>
</g>
<!-- AppModule&#45;&gt;AppComponent  -->
<g id="edge8" class="edge">
<title>AppModule&#45;&gt;AppComponent </title>
<path fill="none" stroke="#000000" stroke-dasharray="1,5" d="M674,-187.1061C674,-187.1061 674,-205.991 674,-205.991"/>
<polygon fill="#000000" stroke="#000000" points="670.5001,-205.9909 674,-215.991 677.5001,-205.991 670.5001,-205.9909"/>
</g>
<!-- AppRoutingModule -->
<g id="node8" class="node">
<title>AppRoutingModule</title>
<polygon fill="#8dd3c7" stroke="#000000" points="152.2744,-122 149.2744,-126 128.2744,-126 125.2744,-122 23.7256,-122 23.7256,-86 152.2744,-86 152.2744,-122"/>
<text text-anchor="middle" x="88" y="-99.8" font-family="Times,serif" font-size="14.00" fill="#000000">AppRoutingModule</text>
</g>
<!-- AppRoutingModule&#45;&gt;AppModule -->
<g id="edge7" class="edge">
<title>AppRoutingModule&#45;&gt;AppModule</title>
<path fill="none" stroke="#000000" d="M88,-122.2921C88,-144.2057 88,-178 88,-178 88,-178 622.3261,-178 622.3261,-178"/>
<polygon fill="#000000" stroke="#000000" points="622.3261,-181.5001 632.3261,-178 622.3261,-174.5001 622.3261,-181.5001"/>
</g>
</g>
</svg>
